<svg version="1.1" id="Layer_1" xmlns="http://www.w3.org/2000/svg" xmlns:xlink="http://www.w3.org/1999/xlink" x="0px" y="0px"
	 width="100%" viewBox="0 0 990 306" enable-background="new 0 0 990 306" xml:space="preserve">
<path fill="#000000" opacity="1.000000" stroke="none" 
	d="
M818.000000,307.000000 
	C545.333374,307.000000 273.166779,307.000000 1.000109,307.000000 
	C1.000073,205.000061 1.000073,103.000137 1.000036,1.000151 
	C330.999878,1.000100 660.999756,1.000100 990.999756,1.000050 
	C990.999817,102.999855 990.999817,204.999710 990.999878,306.999786 
	C933.500000,307.000000 876.000000,307.000000 818.000000,307.000000 
M206.500000,78.000229 
	C163.754242,78.000229 121.008492,78.000229 78.308228,78.000229 
	C78.308228,129.714722 78.308228,180.635864 78.308228,231.603424 
	C129.656219,231.603424 180.695206,231.603424 231.691803,231.603424 
	C231.691803,180.285263 231.691803,129.364120 231.691803,78.000229 
	C223.426926,78.000229 215.463455,78.000229 206.500000,78.000229 
M687.116821,129.672211 
	C688.357788,125.294479 689.598816,120.916748 690.919678,116.257080 
	C681.544495,116.257080 672.464783,116.257080 663.307068,116.257080 
	C660.719604,129.465729 658.177368,142.443527 655.635132,155.421326 
	C655.325684,155.429657 655.016235,155.437988 654.706787,155.446320 
	C651.746704,142.335114 648.786560,129.223923 645.852295,116.227554 
	C636.271973,116.227554 627.313599,116.227554 618.015381,116.227554 
	C615.236328,129.639862 612.487915,142.904190 609.739502,156.168533 
	C609.530212,156.151535 609.320923,156.134552 609.111633,156.117569 
	C606.555786,142.835800 603.999939,129.554031 601.393127,116.007469 
	C582.938232,116.007469 564.626465,115.899597 546.320679,116.178291 
	C544.536621,116.205460 542.375488,118.301430 541.095703,119.976707 
	C535.492737,127.311218 530.149963,134.844528 524.712830,142.305710 
	C524.373535,142.178757 524.034241,142.051819 523.694946,141.924881 
	C523.694946,133.357452 523.694946,124.790016 523.694946,116.317932 
	C514.929810,116.317932 506.672455,116.317932 498.404205,116.317932 
	C498.404205,142.342697 498.404205,168.047409 498.404205,193.682526 
	C507.069244,193.682526 515.326599,193.682526 524.069763,193.682526 
	C524.069763,184.170639 524.069763,174.967926 524.069763,164.250977 
	C530.566223,173.880478 536.136108,182.282761 541.903503,190.547165 
	C542.912109,191.992447 544.723267,193.794678 546.211731,193.839493 
	C555.991638,194.133820 565.784668,193.991257 576.490173,193.991257 
	C575.314819,191.944656 574.651245,190.516022 573.748169,189.259521 
	C565.519653,177.810837 557.368347,166.302902 548.911682,155.024353 
	C546.656738,152.016968 547.474548,150.208481 549.564514,147.865250 
	C552.625671,144.433334 555.427185,140.771027 558.372681,137.234619 
	C563.358887,131.248077 568.371094,125.283218 573.603516,119.033035 
	C574.520569,122.302505 575.284546,124.972496 576.018250,127.650803 
	C581.676453,148.306580 587.459473,168.929962 592.856262,189.653885 
	C593.770081,193.163132 595.134888,194.167206 598.485474,194.057343 
	C604.644226,193.855362 610.820984,193.828705 616.977173,194.067261 
	C620.358337,194.198273 621.361633,192.804810 622.114014,189.680817 
	C625.027832,177.581863 628.327942,165.575928 631.484192,153.535355 
	C631.760925,153.506149 632.037720,153.476944 632.314453,153.447739 
	C635.717957,166.945847 639.121521,180.443970 642.539673,193.999985 
	C649.777893,193.999985 656.623108,193.687759 663.423218,194.107147 
	C668.145020,194.398346 669.930054,192.692413 671.112915,188.177750 
	C676.167542,168.885666 681.664917,149.709579 687.116821,129.672211 
M390.884766,194.588409 
	C399.794006,192.235367 407.550995,188.132828 413.196411,180.521484 
	C420.510986,170.659744 423.115936,159.915268 421.129669,147.667892 
	C419.342316,136.647217 414.444916,127.852242 405.239990,121.701073 
	C393.051453,113.556122 379.696167,112.267654 365.644470,115.682159 
	C353.039215,118.745193 343.911224,125.896347 338.596130,137.845398 
	C335.237305,145.396439 335.401947,153.421387 336.158234,161.225983 
	C337.373657,173.768539 343.993896,183.495102 354.812531,189.868439 
	C365.761383,196.318497 377.739532,197.373215 390.884766,194.588409 
M740.098877,194.909973 
	C749.044006,192.314499 757.247681,188.498917 763.046509,180.801270 
	C770.534058,170.861954 773.200134,159.867767 771.087158,147.482574 
	C769.248962,136.708221 764.460083,127.951706 755.410400,121.810371 
	C743.234009,113.547180 729.840393,112.291580 715.804443,115.613205 
	C703.206970,118.594391 694.054077,125.769272 688.680420,137.711090 
	C685.501465,144.775726 685.566895,152.219009 686.090027,159.587936 
	C687.032715,172.866974 693.252686,183.262085 704.912476,189.928146 
	C715.625854,196.053040 727.190491,197.419693 740.098877,194.909973 
M859.000244,161.433044 
	C859.001648,157.064362 859.137878,152.690689 858.975769,148.328079 
	C858.661865,139.878891 855.052185,132.647202 849.232422,126.877441 
	C836.548340,114.302078 820.979553,111.729355 804.106934,115.484062 
	C794.736145,117.569351 786.897888,122.326996 780.926697,130.113327 
	C773.143066,140.263153 772.879761,152.096634 774.343201,163.685577 
	C775.406067,172.102234 779.605530,180.100525 786.474426,185.657928 
	C795.711975,193.131851 806.509277,196.557022 818.516113,196.020355 
	C837.989990,195.149933 855.595032,183.911148 859.000244,161.433044 
M319.334839,118.984909 
	C316.651306,118.322853 313.987244,117.191467 311.280914,117.079132 
	C298.861542,116.563622 286.430511,116.328522 274.003296,116.005783 
	C272.423157,115.964745 270.841003,116.000160 269.286316,116.000160 
	C269.286316,142.367569 269.286316,167.941101 269.286316,193.630203 
	C277.946869,193.630203 286.316620,193.630203 295.017944,193.630203 
	C295.017944,185.190552 295.017944,177.115936 295.017944,169.041321 
	C297.855530,172.607635 300.570709,176.197266 301.931335,180.242508 
	C305.634491,191.252167 312.332947,196.299515 324.303833,194.150146 
	C329.328339,193.248001 334.649841,194.000000 340.568878,194.000000 
	C333.657257,182.873108 327.385010,172.775589 321.092285,162.645050 
	C339.349426,153.596756 337.325958,125.887245 319.334839,118.984909 
M435.519562,124.985687 
	C418.692871,141.145340 420.358948,171.367416 435.725525,185.064194 
	C454.977905,202.224594 485.654022,197.514984 495.958282,183.694031 
	C493.483093,180.492081 491.063141,177.184753 488.453064,174.034973 
	C485.848846,170.892242 483.054138,167.907364 480.365631,164.878860 
	C468.893738,173.848877 461.459381,171.890915 456.167755,165.525558 
	C450.646423,158.883881 450.484985,149.514832 457.109283,143.329865 
	C463.783783,137.098038 471.355560,137.429382 479.864807,145.080902 
	C485.431244,138.368057 490.976349,131.680969 496.504211,125.014641 
	C479.236267,110.471298 452.668701,110.493576 435.519562,124.985687 
M863.000000,127.521156 
	C863.000000,149.598724 863.000000,171.676300 863.000000,193.686310 
	C880.728027,193.686310 897.649780,193.686310 914.596069,193.686310 
	C914.596069,185.991119 914.596069,178.615402 914.596069,170.808838 
	C906.267334,170.808838 898.338745,170.808838 889.807434,170.808838 
	C889.807434,152.326950 889.807434,134.279282 889.807434,116.318619 
	C880.595276,116.318619 872.004639,116.318619 863.000000,116.318619 
	C863.000000,119.931000 863.000000,123.230156 863.000000,127.521156 
M903.998962,122.540833 
	C904.390503,123.992165 904.782104,125.443497 905.173645,126.894821 
	C906.012268,125.921722 906.850952,124.948616 907.514709,124.178459 
	C908.270569,125.117744 909.089355,126.135162 910.029358,127.303268 
	C911.084290,125.709755 911.790344,124.643257 912.544800,123.503616 
	C913.029358,124.788231 913.419922,125.823570 913.810486,126.858902 
	C914.089905,126.793205 914.369324,126.727516 914.648743,126.661819 
	C914.648743,123.528694 914.648743,120.395576 914.648743,117.262451 
	C913.848572,116.566330 913.048462,115.870209 912.248291,115.174088 
	C911.360840,117.045288 910.473450,118.916496 909.601074,120.755943 
	C907.071411,116.538765 901.684387,115.516296 896.399841,117.597496 
	C897.266663,120.883949 898.062317,123.900726 898.857971,126.917503 
	C899.330139,126.968781 899.802368,127.020058 900.274536,127.071342 
	C900.518311,125.288040 900.642456,123.476524 901.053833,121.732758 
	C901.274780,120.796173 901.988831,119.975929 902.480408,119.103172 
	C902.984924,119.961281 903.489502,120.819389 903.998962,122.540833 
z"/>
<path fill="#D20014" opacity="1.000000" stroke="none" 
	d="
M207.000000,78.000229 
	C215.463455,78.000229 223.426926,78.000229 231.691803,78.000229 
	C231.691803,129.364120 231.691803,180.285263 231.691803,231.603424 
	C180.695206,231.603424 129.656219,231.603424 78.308228,231.603424 
	C78.308228,180.635864 78.308228,129.714722 78.308228,78.000229 
	C121.008492,78.000229 163.754242,78.000229 207.000000,78.000229 
M201.901794,169.565536 
	C192.486145,153.874481 183.074631,138.180939 173.652847,122.493576 
	C169.759171,116.010574 168.376587,115.508636 160.159302,117.670876 
	C160.159302,132.740067 160.138443,147.882858 160.202942,163.025269 
	C160.207596,164.115540 160.639023,165.319077 161.203674,166.273804 
	C166.113388,174.575500 171.046326,182.864944 176.125031,191.063477 
	C176.799393,192.152100 178.319443,193.393356 179.464355,193.409729 
	C191.396378,193.580429 203.331787,193.514938 216.172928,193.514938 
	C211.204529,185.232498 206.704620,177.731064 201.901794,169.565536 
M149.006821,134.501129 
	C149.006821,128.723129 149.006821,122.945137 149.006821,117.377754 
	C142.108688,115.503036 138.187683,117.549286 134.692856,123.651833 
	C121.989037,145.834686 108.575661,167.611099 95.446281,189.550629 
	C94.809853,190.614120 94.329582,191.771057 93.467949,193.505890 
	C106.058754,193.505890 117.986122,193.557053 129.911224,193.415695 
	C130.945221,193.403442 132.309311,192.348373 132.938507,191.394196 
	C142.917557,176.260712 152.963593,161.133255 149.057831,141.478455 
	C148.676239,139.558258 149.006821,137.496567 149.006821,134.501129 
z"/>
<path fill="#D20014" opacity="1.000000" stroke="none" 
	d="
M687.058838,130.081696 
	C681.664917,149.709579 676.167542,168.885666 671.112915,188.177750 
	C669.930054,192.692413 668.145020,194.398346 663.423218,194.107147 
	C656.623108,193.687759 649.777893,193.999985 642.539673,193.999985 
	C639.121521,180.443970 635.717957,166.945847 632.314453,153.447739 
	C632.037720,153.476944 631.760925,153.506149 631.484192,153.535355 
	C628.327942,165.575928 625.027832,177.581863 622.114014,189.680817 
	C621.361633,192.804810 620.358337,194.198273 616.977173,194.067261 
	C610.820984,193.828705 604.644226,193.855362 598.485474,194.057343 
	C595.134888,194.167206 593.770081,193.163132 592.856262,189.653885 
	C587.459473,168.929962 581.676453,148.306580 576.018250,127.650803 
	C575.284546,124.972496 574.520569,122.302505 573.603516,119.033035 
	C568.371094,125.283218 563.358887,131.248077 558.372681,137.234619 
	C555.427185,140.771027 552.625671,144.433334 549.564514,147.865250 
	C547.474548,150.208481 546.656738,152.016968 548.911682,155.024353 
	C557.368347,166.302902 565.519653,177.810837 573.748169,189.259521 
	C574.651245,190.516022 575.314819,191.944656 576.490173,193.991257 
	C565.784668,193.991257 555.991638,194.133820 546.211731,193.839493 
	C544.723267,193.794678 542.912109,191.992447 541.903503,190.547165 
	C536.136108,182.282761 530.566223,173.880478 524.069763,164.250977 
	C524.069763,174.967926 524.069763,184.170639 524.069763,193.682526 
	C515.326599,193.682526 507.069244,193.682526 498.404205,193.682526 
	C498.404205,168.047409 498.404205,142.342697 498.404205,116.317932 
	C506.672455,116.317932 514.929810,116.317932 523.694946,116.317932 
	C523.694946,124.790016 523.694946,133.357452 523.694946,141.924881 
	C524.034241,142.051819 524.373535,142.178757 524.712830,142.305710 
	C530.149963,134.844528 535.492737,127.311218 541.095703,119.976707 
	C542.375488,118.301430 544.536621,116.205460 546.320679,116.178291 
	C564.626465,115.899597 582.938232,116.007469 601.393127,116.007469 
	C603.999939,129.554031 606.555786,142.835800 609.111633,156.117569 
	C609.320923,156.134552 609.530212,156.151535 609.739502,156.168533 
	C612.487915,142.904190 615.236328,129.639862 618.015381,116.227554 
	C627.313599,116.227554 636.271973,116.227554 645.852295,116.227554 
	C648.786560,129.223923 651.746704,142.335114 654.706787,155.446320 
	C655.016235,155.437988 655.325684,155.429657 655.635132,155.421326 
	C658.177368,142.443527 660.719604,129.465729 663.307068,116.257080 
	C672.464783,116.257080 681.544495,116.257080 690.919678,116.257080 
	C689.598816,120.916748 688.357788,125.294479 687.058838,130.081696 
z"/>
<path fill="#D20014" opacity="1.000000" stroke="none" 
	d="
M390.489258,194.749451 
	C377.739532,197.373215 365.761383,196.318497 354.812531,189.868439 
	C343.993896,183.495102 337.373657,173.768539 336.158234,161.225983 
	C335.401947,153.421387 335.237305,145.396439 338.596130,137.845398 
	C343.911224,125.896347 353.039215,118.745193 365.644470,115.682159 
	C379.696167,112.267654 393.051453,113.556122 405.239990,121.701073 
	C414.444916,127.852242 419.342316,136.647217 421.129669,147.667892 
	C423.115936,159.915268 420.510986,170.659744 413.196411,180.521484 
	C407.550995,188.132828 399.794006,192.235367 390.489258,194.749451 
M373.691956,139.764221 
	C363.340454,142.920959 361.099182,157.333740 367.845795,165.790848 
	C373.195221,172.496536 384.882843,172.843063 389.593506,165.762527 
	C393.849121,159.365936 394.691956,152.377609 390.744171,145.711075 
	C387.156067,139.651962 381.165222,137.972473 373.691956,139.764221 
z"/>
<path fill="#D20014" opacity="1.000000" stroke="none" 
	d="
M739.669800,194.946213 
	C727.190491,197.419693 715.625854,196.053040 704.912476,189.928146 
	C693.252686,183.262085 687.032715,172.866974 686.090027,159.587936 
	C685.566895,152.219009 685.501465,144.775726 688.680420,137.711090 
	C694.054077,125.769272 703.206970,118.594391 715.804443,115.613205 
	C729.840393,112.291580 743.234009,113.547180 755.410400,121.810371 
	C764.460083,127.951706 769.248962,136.708221 771.087158,147.482574 
	C773.200134,159.867767 770.534058,170.861954 763.046509,180.801270 
	C757.247681,188.498917 749.044006,192.314499 739.669800,194.946213 
M714.000488,153.645676 
	C713.900818,159.148010 715.190186,164.304596 719.636230,167.770798 
	C725.833679,172.602417 733.658020,172.072861 738.450989,167.047150 
	C744.004883,161.223633 744.636414,150.006348 739.770508,144.269135 
	C735.717041,139.489960 730.354309,137.689499 724.610901,139.353470 
	C718.281006,141.187393 714.541748,145.937363 714.000488,153.645676 
z"/>
<path fill="#D20014" opacity="1.000000" stroke="none" 
	d="
M858.998413,161.870850 
	C855.595032,183.911148 837.989990,195.149933 818.516113,196.020355 
	C806.509277,196.557022 795.711975,193.131851 786.474426,185.657928 
	C779.605530,180.100525 775.406067,172.102234 774.343201,163.685577 
	C772.879761,152.096634 773.143066,140.263153 780.926697,130.113327 
	C786.897888,122.326996 794.736145,117.569351 804.106934,115.484062 
	C820.979553,111.729355 836.548340,114.302078 849.232422,126.877441 
	C855.052185,132.647202 858.661865,139.878891 858.975769,148.328079 
	C859.137878,152.690689 859.001648,157.064362 858.998413,161.870850 
M809.592712,169.168732 
	C820.195740,173.215195 827.678101,169.523666 830.665833,158.772018 
	C832.703186,151.440460 829.326172,143.621521 822.683655,140.290588 
	C816.738770,137.309479 809.225281,139.083435 804.931396,144.630890 
	C799.566956,151.561386 801.739685,164.372528 809.592712,169.168732 
z"/>
<path fill="#D20014" opacity="1.000000" stroke="none" 
	d="
M319.726990,119.030167 
	C337.325958,125.887245 339.349426,153.596756 321.092285,162.645050 
	C327.385010,172.775589 333.657257,182.873108 340.568878,194.000000 
	C334.649841,194.000000 329.328339,193.248001 324.303833,194.150146 
	C312.332947,196.299515 305.634491,191.252167 301.931335,180.242508 
	C300.570709,176.197266 297.855530,172.607635 295.017944,169.041321 
	C295.017944,177.115936 295.017944,185.190552 295.017944,193.630203 
	C286.316620,193.630203 277.946869,193.630203 269.286316,193.630203 
	C269.286316,167.941101 269.286316,142.367569 269.286316,116.000160 
	C270.841003,116.000160 272.423157,115.964745 274.003296,116.005783 
	C286.430511,116.328522 298.861542,116.563622 311.280914,117.079132 
	C313.987244,117.191467 316.651306,118.322853 319.726990,119.030167 
M297.529510,137.010071 
	C296.694153,137.739243 295.210724,138.409500 295.138092,139.208023 
	C294.856384,142.305817 295.023468,145.444443 295.023468,149.253693 
	C297.793457,148.764969 300.248718,148.874878 302.091583,147.866089 
	C304.285034,146.665405 305.952759,144.504333 307.848267,142.759399 
	C306.029572,140.907120 304.369598,138.843552 302.317657,137.301697 
	C301.439636,136.641937 299.745087,137.068848 297.529510,137.010071 
z"/>
<path fill="#D20014" opacity="1.000000" stroke="none" 
	d="
M435.773743,124.726143 
	C452.668701,110.493576 479.236267,110.471298 496.504211,125.014641 
	C490.976349,131.680969 485.431244,138.368057 479.864807,145.080902 
	C471.355560,137.429382 463.783783,137.098038 457.109283,143.329865 
	C450.484985,149.514832 450.646423,158.883881 456.167755,165.525558 
	C461.459381,171.890915 468.893738,173.848877 480.365631,164.878860 
	C483.054138,167.907364 485.848846,170.892242 488.453064,174.034973 
	C491.063141,177.184753 493.483093,180.492081 495.958282,183.694031 
	C485.654022,197.514984 454.977905,202.224594 435.725525,185.064194 
	C420.358948,171.367416 418.692871,141.145340 435.773743,124.726143 
z"/>
<path fill="#D20014" opacity="1.000000" stroke="none" 
	d="
M863.000000,127.025238 
	C863.000000,123.230156 863.000000,119.931000 863.000000,116.318619 
	C872.004639,116.318619 880.595276,116.318619 889.807434,116.318619 
	C889.807434,134.279282 889.807434,152.326950 889.807434,170.808838 
	C898.338745,170.808838 906.267334,170.808838 914.596069,170.808838 
	C914.596069,178.615402 914.596069,185.991119 914.596069,193.686310 
	C897.649780,193.686310 880.728027,193.686310 863.000000,193.686310 
	C863.000000,171.676300 863.000000,149.598724 863.000000,127.025238 
z"/>
<path fill="#D20014" opacity="1.000000" stroke="none" 
	d="
M903.996521,122.109161 
	C903.489502,120.819389 902.984924,119.961281 902.480347,119.103180 
	C901.988831,119.975929 901.274780,120.796173 901.053833,121.732758 
	C900.642456,123.476524 900.518311,125.288040 900.274536,127.071342 
	C899.802368,127.020058 899.330139,126.968781 898.857971,126.917503 
	C898.062317,123.900726 897.266663,120.883949 896.399841,117.597496 
	C901.684387,115.516296 907.071411,116.538765 909.601074,120.755943 
	C910.473450,118.916496 911.360840,117.045288 912.248291,115.174088 
	C913.048462,115.870209 913.848572,116.566330 914.648743,117.262451 
	C914.648743,120.395576 914.648743,123.528694 914.648743,126.661819 
	C914.369324,126.727516 914.089905,126.793205 913.810486,126.858902 
	C913.419922,125.823570 913.029358,124.788231 912.544800,123.503616 
	C911.790344,124.643257 911.084290,125.709755 910.029358,127.303268 
	C909.089355,126.135162 908.270569,125.117744 907.514709,124.178459 
	C906.850952,124.948616 906.012268,125.921722 905.173645,126.894829 
	C904.782104,125.443497 904.390503,123.992165 903.996521,122.109161 
z"/>
<path fill="#FEFAFA" opacity="1.000000" stroke="none" 
	d="
M202.053253,169.897583 
	C206.704620,177.731064 211.204529,185.232498 216.172928,193.514938 
	C203.331787,193.514938 191.396378,193.580429 179.464355,193.409729 
	C178.319443,193.393356 176.799393,192.152100 176.125031,191.063477 
	C171.046326,182.864944 166.113388,174.575500 161.203674,166.273804 
	C160.639023,165.319077 160.207596,164.115540 160.202942,163.025269 
	C160.138443,147.882858 160.159302,132.740067 160.159302,117.670876 
	C168.376587,115.508636 169.759171,116.010574 173.652847,122.493576 
	C183.074631,138.180939 192.486145,153.874481 202.053253,169.897583 
z"/>
<path fill="#FEFBFB" opacity="1.000000" stroke="none" 
	d="
M149.006821,135.000839 
	C149.006821,137.496567 148.676239,139.558258 149.057831,141.478455 
	C152.963593,161.133255 142.917557,176.260712 132.938507,191.394196 
	C132.309311,192.348373 130.945221,193.403442 129.911224,193.415695 
	C117.986122,193.557053 106.058754,193.505890 93.467949,193.505890 
	C94.329582,191.771057 94.809853,190.614120 95.446281,189.550629 
	C108.575661,167.611099 121.989037,145.834686 134.692856,123.651833 
	C138.187683,117.549286 142.108688,115.503036 149.006821,117.377754 
	C149.006821,122.945137 149.006821,128.723129 149.006821,135.000839 
z"/>
<path fill="#000000" opacity="1.000000" stroke="none" 
	d="
M374.015778,139.510559 
	C381.165222,137.972473 387.156067,139.651962 390.744171,145.711075 
	C394.691956,152.377609 393.849121,159.365936 389.593506,165.762527 
	C384.882843,172.843063 373.195221,172.496536 367.845795,165.790848 
	C361.099182,157.333740 363.340454,142.920959 374.015778,139.510559 
z"/>
<path fill="#000000" opacity="1.000000" stroke="none" 
	d="
M714.001709,153.215118 
	C714.541748,145.937363 718.281006,141.187393 724.610901,139.353470 
	C730.354309,137.689499 735.717041,139.489960 739.770508,144.269135 
	C744.636414,150.006348 744.004883,161.223633 738.450989,167.047150 
	C733.658020,172.072861 725.833679,172.602417 719.636230,167.770798 
	C715.190186,164.304596 713.900818,159.148010 714.001709,153.215118 
z"/>
<path fill="#000000" opacity="1.000000" stroke="none" 
	d="
M809.218689,169.060669 
	C801.739685,164.372528 799.566956,151.561386 804.931396,144.630890 
	C809.225281,139.083435 816.738770,137.309479 822.683655,140.290588 
	C829.326172,143.621521 832.703186,151.440460 830.665833,158.772018 
	C827.678101,169.523666 820.195740,173.215195 809.218689,169.060669 
z"/>
<path fill="#000000" opacity="1.000000" stroke="none" 
	d="
M297.975525,137.006042 
	C299.745087,137.068848 301.439636,136.641937 302.317657,137.301697 
	C304.369598,138.843552 306.029572,140.907120 307.848267,142.759399 
	C305.952759,144.504333 304.285034,146.665405 302.091583,147.866089 
	C300.248718,148.874878 297.793457,148.764969 295.023468,149.253693 
	C295.023468,145.444443 294.856384,142.305817 295.138092,139.208023 
	C295.210724,138.409500 296.694153,137.739243 297.975525,137.006042 
z"/>
</svg>